<mxfile host="Electron" agent="Mozilla/5.0 (Macintosh; Intel Mac OS X 10_15_7) AppleWebKit/537.36 (KHTML, like Gecko) draw.io/24.7.8 Chrome/128.0.6613.36 Electron/32.0.1 Safari/537.36" version="24.7.8">
  <diagram name="Page-1" id="Mk-oHt2b1w52tDMhMtMy">
    <mxGraphModel dx="1026" dy="743" grid="1" gridSize="10" guides="1" tooltips="1" connect="1" arrows="1" fold="1" page="1" pageScale="1" pageWidth="850" pageHeight="1100" math="0" shadow="0">
      <root>
        <mxCell id="0" />
        <mxCell id="1" parent="0" />
        <mxCell id="NsOHdkp2GwS7Km774iBZ-3" value="Included" style="edgeStyle=orthogonalEdgeStyle;rounded=0;orthogonalLoop=1;jettySize=auto;html=1;fontSize=14;" parent="1" source="NsOHdkp2GwS7Km774iBZ-1" target="NsOHdkp2GwS7Km774iBZ-2" edge="1">
          <mxGeometry relative="1" as="geometry" />
        </mxCell>
        <mxCell id="NsOHdkp2GwS7Km774iBZ-5" value="Excluded" style="edgeStyle=orthogonalEdgeStyle;rounded=0;orthogonalLoop=1;jettySize=auto;html=1;fontSize=14;" parent="1" source="NsOHdkp2GwS7Km774iBZ-1" edge="1">
          <mxGeometry relative="1" as="geometry">
            <mxPoint x="280" y="80" as="targetPoint" />
          </mxGeometry>
        </mxCell>
        <mxCell id="NsOHdkp2GwS7Km774iBZ-1" value="Search&lt;div style=&quot;font-size: 14px;&quot;&gt;MI&lt;/div&gt;" style="whiteSpace=wrap;html=1;aspect=fixed;fontSize=14;" parent="1" vertex="1">
          <mxGeometry x="120" y="40" width="80" height="80" as="geometry" />
        </mxCell>
        <mxCell id="NsOHdkp2GwS7Km774iBZ-8" value="Included" style="edgeStyle=orthogonalEdgeStyle;rounded=0;orthogonalLoop=1;jettySize=auto;html=1;fontSize=14;" parent="1" source="NsOHdkp2GwS7Km774iBZ-2" target="NsOHdkp2GwS7Km774iBZ-7" edge="1">
          <mxGeometry relative="1" as="geometry" />
        </mxCell>
        <mxCell id="NsOHdkp2GwS7Km774iBZ-2" value="Research&lt;br style=&quot;font-size: 14px;&quot;&gt;Articles" style="whiteSpace=wrap;html=1;aspect=fixed;fontSize=14;" parent="1" vertex="1">
          <mxGeometry x="120" y="200" width="80" height="80" as="geometry" />
        </mxCell>
        <mxCell id="NsOHdkp2GwS7Km774iBZ-6" value="Excluded" style="edgeStyle=orthogonalEdgeStyle;rounded=0;orthogonalLoop=1;jettySize=auto;html=1;fontSize=14;" parent="1" edge="1">
          <mxGeometry relative="1" as="geometry">
            <mxPoint x="200" y="239.5" as="sourcePoint" />
            <mxPoint x="280" y="239.5" as="targetPoint" />
          </mxGeometry>
        </mxCell>
        <mxCell id="NsOHdkp2GwS7Km774iBZ-10" value="Excluded" style="edgeStyle=orthogonalEdgeStyle;rounded=0;orthogonalLoop=1;jettySize=auto;html=1;fontSize=14;" parent="1" source="NsOHdkp2GwS7Km774iBZ-7" edge="1">
          <mxGeometry relative="1" as="geometry">
            <mxPoint x="280" y="400" as="targetPoint" />
          </mxGeometry>
        </mxCell>
        <mxCell id="NsOHdkp2GwS7Km774iBZ-12" value="Included" style="edgeStyle=orthogonalEdgeStyle;rounded=0;orthogonalLoop=1;jettySize=auto;html=1;fontSize=14;" parent="1" source="NsOHdkp2GwS7Km774iBZ-7" target="NsOHdkp2GwS7Km774iBZ-11" edge="1">
          <mxGeometry relative="1" as="geometry" />
        </mxCell>
        <mxCell id="NsOHdkp2GwS7Km774iBZ-7" value="MI&amp;nbsp;&lt;br style=&quot;font-size: 14px;&quot;&gt;Research&lt;br style=&quot;font-size: 14px;&quot;&gt;Articles" style="whiteSpace=wrap;html=1;aspect=fixed;fontSize=14;" parent="1" vertex="1">
          <mxGeometry x="120" y="360" width="80" height="80" as="geometry" />
        </mxCell>
        <mxCell id="NsOHdkp2GwS7Km774iBZ-14" value="Excluded" style="edgeStyle=orthogonalEdgeStyle;rounded=0;orthogonalLoop=1;jettySize=auto;html=1;fontSize=14;" parent="1" source="NsOHdkp2GwS7Km774iBZ-11" edge="1">
          <mxGeometry relative="1" as="geometry">
            <mxPoint x="280" y="560" as="targetPoint" />
          </mxGeometry>
        </mxCell>
        <mxCell id="NsOHdkp2GwS7Km774iBZ-16" value="Included" style="edgeStyle=orthogonalEdgeStyle;rounded=0;orthogonalLoop=1;jettySize=auto;html=1;fontSize=14;" parent="1" source="NsOHdkp2GwS7Km774iBZ-11" target="NsOHdkp2GwS7Km774iBZ-15" edge="1">
          <mxGeometry relative="1" as="geometry" />
        </mxCell>
        <mxCell id="NsOHdkp2GwS7Km774iBZ-11" value="Used&lt;div style=&quot;font-size: 14px;&quot;&gt;SEM&lt;/div&gt;" style="whiteSpace=wrap;html=1;aspect=fixed;fontSize=14;" parent="1" vertex="1">
          <mxGeometry x="120" y="520" width="80" height="80" as="geometry" />
        </mxCell>
        <mxCell id="NsOHdkp2GwS7Km774iBZ-18" value="Excluded" style="edgeStyle=orthogonalEdgeStyle;rounded=0;orthogonalLoop=1;jettySize=auto;html=1;fontSize=14;" parent="1" source="NsOHdkp2GwS7Km774iBZ-15" edge="1">
          <mxGeometry relative="1" as="geometry">
            <mxPoint x="280" y="720" as="targetPoint" />
          </mxGeometry>
        </mxCell>
        <mxCell id="EjYGJ1j4HtprxGbGdGID-2" value="Includes&lt;div style=&quot;font-size: 14px;&quot;&gt;Data&lt;/div&gt;" style="edgeStyle=orthogonalEdgeStyle;rounded=0;orthogonalLoop=1;jettySize=auto;html=1;fontSize=14;" edge="1" parent="1" source="NsOHdkp2GwS7Km774iBZ-15" target="EjYGJ1j4HtprxGbGdGID-1">
          <mxGeometry relative="1" as="geometry" />
        </mxCell>
        <mxCell id="NsOHdkp2GwS7Km774iBZ-15" value="Data&amp;nbsp;&lt;br style=&quot;font-size: 14px;&quot;&gt;Research&lt;br style=&quot;font-size: 14px;&quot;&gt;Articles" style="whiteSpace=wrap;html=1;aspect=fixed;fontSize=14;" parent="1" vertex="1">
          <mxGeometry x="120" y="680" width="80" height="80" as="geometry" />
        </mxCell>
        <mxCell id="EjYGJ1j4HtprxGbGdGID-1" value="Effect Size&lt;div style=&quot;font-size: 14px;&quot;&gt;Calculation&lt;/div&gt;" style="whiteSpace=wrap;html=1;aspect=fixed;fontSize=14;" vertex="1" parent="1">
          <mxGeometry x="120" y="840" width="80" height="80" as="geometry" />
        </mxCell>
      </root>
    </mxGraphModel>
  </diagram>
</mxfile>
